<svg width="150" height="150" viewBox="0 0 150 150" fill="none" xmlns="http://www.w3.org/2000/svg">
<path d="M39.6833 116.007L39.6833 116.007C44.3695 120.693 51.9675 120.693 56.6538 116.007L74.682 97.9788L92.7155 116.008C97.402 120.693 104.999 120.693 109.685 116.007L102.614 108.936L109.685 116.007L115.694 109.998L109.266 103.57L115.694 109.998C120.381 105.311 120.381 97.7135 115.694 93.0272L108.623 100.098L115.694 93.0272L97.6671 75L115.694 56.9728C120.381 52.2864 120.381 44.6885 115.694 40.0022L115.694 40.0022L109.685 33.993C104.999 29.3071 97.402 29.3066 92.7155 33.992L74.682 52.0212L56.6538 33.9931C51.9675 29.3068 44.3695 29.3069 39.6833 33.9931L33.6742 40.0022C28.9879 44.6885 28.9879 52.2865 33.6742 56.9728L51.7016 75L33.6742 93.0272C28.9879 97.7135 28.9879 105.312 33.6742 109.998L39.6833 116.007Z" fill="#3284D2" stroke="#3284D2" stroke-width="20"/>
</svg>
